# xmcd CD database file
#
# Track frame offsets:
#	150
#	18268
#	35905
#	50568
#	58115
#	79503
#	95453
#	112665
#	132868
#	151450
#	171825
#	187150
#	196500
#	211318
#	228540
#
# Disc length: 3282 seconds
#
# Revision: 4
# Processed by: cddbd v1.5.2PL0 Copyright (c) Steve Scherf et al.
# Submitted via: CDex 1.70beta2
#
DISCID=c40cd00f
DTITLE=Grappelli, Stephane - Stardust
DYEAR=1988
DGENRE=Jazz
TTITLE0=Stardust (take 1)
TTITLE1=The nearness of you (take 7)
TTITLE2=Tournesol (take 6)
TTITLE3=Greensleeves (take 10)
TTITLE4=You go to my head
TTITLE5=Nature boy
TTITLE6=Can't help loving that man o'mine
TTITLE7=We'll be together again
TTITLE8=The talk of the town
TTITLE9=Amanda
TTITLE10=I saw stars
TTITLE11=Greensleeves (take 17)
TTITLE12=Tournesol (take 8)
TTITLE13=The nearness of you (take 8)
TTITLE14=Stardust (take 2)
EXTD=YEAR: 1988
EXTT0=
EXTT1=
EXTT2=
EXTT3=
EXTT4=
EXTT5=
EXTT6=
EXTT7=
EXTT8=
EXTT9=
EXTT10=
EXTT11=
EXTT12=
EXTT13=
EXTT14=
PLAYORDER=
